<svg xmlns="http://www.w3.org/2000/svg" width="24" height="24" viewBox="0 0 24 24">
  <g fill="none">
    <path d="M4 5C4 3.89543 4.89543 3 6 3H12C13.1046 3 14 3.89543 14 5V11C14 12.1046 13.1046 13 12 13H8.41421C8.149 13 7.89464 13.1054 7.70711 13.2929L6 15V13.5C6 13.2239 5.77614 13 5.5 13H5C4.44772 13 4 12.5523 4 12V5Z" fill="#FF8C42" opacity="0.6"/>
    <path d="M10 9C10 7.89543 10.89543 7 12 7H18C19.1046 7 20 7.89543 20 9V15C20 15.5523 19.5523 16 19 16H18.5C18.2239 16 18 16.2239 18 16.5V19L16.2929 17.2929C16.1054 17.1054 15.851 17 15.5858 17H12C10.8954 17 10 16.1046 10 15V9Z" fill="#FF8C42"/>
    <path d="M3.25 5C3.25 3.48122 4.48122 2.25 6 2.25H12C13.5188 2.25 14.75 3.48122 14.75 5V7.25H12C10.4812 7.25 9.25 8.48122 9.25 10V11C9.25 12.5188 10.4812 13.75 12 13.75H13.25V11C13.25 11.6904 12.6904 12.25 12 12.25H8.41421C7.94742 12.25 7.50182 12.4344 7.17678 12.7594L5.25 14.6858V13.5C5.25 12.8096 5.80964 12.25 6.5 12.25H6C6.13807 12.25 6.25 12.1381 6.25 12V5C6.25 4.86193 6.13807 4.75 6 4.75C4.75736 4.75 3.75 5.75736 3.75 7V12C3.75 12.6904 3.30964 13.25 2.61929 13.25C1.92893 13.25 1.36929 12.6904 1.36929 12C1.36929 11.3096 1.92893 10.75 2.61929 10.75H2.75V11.5C2.75 11.9142 2.41421 12.25 2 12.25C1.58579 12.25 1.25 11.9142 1.25 11.5V5ZM18.75 16.6858L20.6768 18.6126C21.0673 19.0032 21.7005 19.0032 22.091 18.6126C22.4816 18.2221 22.4816 17.5889 22.091 17.1984L19.4142 14.5216C19.0237 14.131 18.3905 14.131 18 14.5216C17.6095 14.9121 17.6095 15.5453 18 15.9358L18.75 16.6858Z" fill="white" opacity="0.3"/>
  </g>
</svg>