<svg width="24" height="24" viewBox="0 0 24 24" fill="none" xmlns="http://www.w3.org/2000/svg">
<path fill-rule="evenodd" clip-rule="evenodd" d="M12 3.5C10.5 2 8 1 5 1C4 1 3 1.2 2 1.5V16.5C3 16.2 4 16 5 16C8 16 10.5 17 12 18.5C13.5 17 16 16 19 16C20 16 21 16.2 22 16.5V1.5C21 1.2 20 1 19 1C16 1 13.5 2 12 3.5ZM20 14.5C19.4 14.3 18.7 14.2 18 14.2C15.5 14.2 13.5 15.1 12 16.8C10.5 15.1 8.5 14.2 6 14.2C5.3 14.2 4.6 14.3 4 14.5V3.5C4.6 3.3 5.3 3.2 6 3.2C8.5 3.2 10.5 4.1 12 5.8C13.5 4.1 15.5 3.2 18 3.2C18.7 3.2 19.4 3.3 20 3.5V14.5Z" fill="black"/>
</svg>