<svg width="24" height="24" viewBox="0 0 24 24" fill="none" xmlns="http://www.w3.org/2000/svg">
<g clip-path="url(#clip0_6_45)">
<mask id="mask0_6_45" style="mask-type:luminance" maskUnits="userSpaceOnUse" x="0" y="0" width="24" height="24">
<path d="M24 0H0V24H24V0Z" fill="white"/>
<path d="M15.5975 6C16.6062 6 17.5776 6.38108 18.3173 7.06693L21.7198 10.222C22.5361 10.9789 23 12.0418 23 13.155V19.5C23 21.433 21.433 23 19.5 23H11.5C9.567 23 8 21.433 8 19.5V9.5C8 7.567 9.56701 6 11.5 6H15.5975Z" fill="black"/>
</mask>
<g mask="url(#mask0_6_45)">
<path d="M8.40248 1C7.3938 1 6.42236 1.38108 5.68272 2.06693L2.28024 5.22196C1.46393 5.9789 1 7.04178 1 8.15503V14.5C1 16.433 2.567 18 4.5 18H12.5C14.433 18 16 16.433 16 14.5V4.5C16 2.567 14.433 1 12.5 1H8.40248Z" fill="url(#paint0_linear_6_45)"/>
</g>
<mask id="mask1_6_45" style="mask-type:luminance" maskUnits="userSpaceOnUse" x="8" y="6" width="15" height="17">
<path d="M15.5975 6C16.6062 6 17.5776 6.38108 18.3173 7.06693L21.7198 10.222C22.5361 10.9789 23 12.0418 23 13.155V19.5C23 21.433 21.433 23 19.5 23H11.5C9.567 23 8 21.433 8 19.5V9.5C8 7.567 9.56701 6 11.5 6H15.5975Z" fill="white"/>
</mask>
<g mask="url(#mask1_6_45)">
<g filter="url(#filter0_f_6_45)">
<path d="M8.40248 1C7.3938 1 6.42236 1.38108 5.68272 2.06693L2.28024 5.22196C1.46393 5.9789 1 7.04178 1 8.15503V14.5C1 16.433 2.567 18 4.5 18H12.5C14.433 18 16 16.433 16 14.5V4.5C16 2.567 14.433 1 12.5 1H8.40248Z" fill="url(#paint1_linear_6_45)"/>
</g>
</g>
<path d="M15.5975 6C16.6062 6 17.5776 6.38108 18.3173 7.06693L21.7198 10.222C22.5361 10.9789 23 12.0418 23 13.155V19.5C23 21.433 21.433 23 19.5 23H11.5C9.567 23 8 21.433 8 19.5V9.5C8 7.567 9.56701 6 11.5 6H15.5975Z" fill="url(#paint2_linear_6_45)"/>
<path d="M8 19.5V9.5C8 7.567 9.567 6 11.5 6H15.5977L15.7861 6.00488C16.7267 6.04926 17.624 6.4244 18.3174 7.06738L21.7197 10.2217C22.536 10.9786 23 12.042 23 13.1553V19.5L22.9951 19.6797C22.9046 21.4697 21.4696 22.9046 19.6797 22.9951L19.5 23V22.25C21.0188 22.25 22.25 21.0188 22.25 19.5V13.1553C22.25 12.2508 21.8732 11.3865 21.21 10.7715L17.8076 7.61719C17.2067 7.05997 16.4172 6.75004 15.5977 6.75H11.5C9.98122 6.75 8.75 7.98122 8.75 9.5V19.5C8.75 21.0188 9.98122 22.25 11.5 22.25V23L11.3203 22.9951C9.47083 22.9016 8 21.3727 8 19.5ZM19.5 22.25V23H11.5V22.25H19.5Z" fill="url(#paint3_linear_6_45)"/>
</g>
<defs>
<filter id="filter0_f_6_45" x="-3" y="-3" width="23" height="25" filterUnits="userSpaceOnUse" color-interpolation-filters="sRGB">
<feFlood flood-opacity="0" result="BackgroundImageFix"/>
<feBlend mode="normal" in="SourceGraphic" in2="BackgroundImageFix" result="shape"/>
<feGaussianBlur stdDeviation="2" result="effect1_foregroundBlur_6_45"/>
</filter>
<linearGradient id="paint0_linear_6_45" x1="8.5" y1="1" x2="8.5" y2="18" gradientUnits="userSpaceOnUse">
<stop stop-color="#ECA762"/>
<stop offset="1" stop-color="#EB7C0D"/>
</linearGradient>
<linearGradient id="paint1_linear_6_45" x1="8.5" y1="1" x2="8.5" y2="18" gradientUnits="userSpaceOnUse">
<stop stop-color="#575757"/>
<stop offset="1" stop-color="#151515"/>
</linearGradient>
<linearGradient id="paint2_linear_6_45" x1="23" y1="14.5" x2="8" y2="14.5" gradientUnits="userSpaceOnUse">
<stop stop-color="#E3E3E5" stop-opacity="0.6"/>
<stop offset="1" stop-color="#BBBBC0" stop-opacity="0.6"/>
</linearGradient>
<linearGradient id="paint3_linear_6_45" x1="15.5" y1="6" x2="15.5" y2="15.845" gradientUnits="userSpaceOnUse">
<stop stop-color="white"/>
<stop offset="1" stop-color="white" stop-opacity="0"/>
</linearGradient>
<clipPath id="clip0_6_45">
<rect width="24" height="24" fill="white"/>
</clipPath>
</defs>
</svg>
